<?xml version="1.0" standalone="yes"?>
<svg xmlns="http://www.w3.org/2000/svg" width="351" height="593">
<path style="fill:#fff; stroke:none;" d="M0 0L0 593L351 593L351 0L0 0z"/>
<path style="fill:#666666; stroke:none;" d="M184 26C179.791 43.6798 183.754 63.8766 182.961 82C182.233 98.6134 181.408 115.435 179.83 132C178.885 141.928 177.083 152.023 177 162L165 162L166 197L172 197C171.506 200.915 170.896 204.157 172 208C159.906 210.53 155.707 218.253 159 230L142 230C142.659 245.338 144.966 260.68 146.089 276C146.484 281.389 145.575 289.884 152 291C147.936 310.688 140.947 330.151 134.053 349C122.5 380.589 109.136 411.686 92.5756 441C84.0991 456.004 75.155 470.869 65.2801 485C60.3864 492.003 52.0419 499.977 49.1582 508C47.0358 513.905 49 523.658 49 530L59 530L59 514L100 514C98.9959 519.329 98.045 524.565 98 530L104 530C105.429 518.751 109.362 508.089 111 497C113.532 505.566 112 516.091 112 525L134 525L134 475L233 475L233 525L255 525L255 492C261.318 503.991 262.558 517.89 265 531L271 531C270.881 525.255 269.451 519.71 269 514L310 514L310 530L320 530C320 523.273 321.516 514.433 319.436 508C318.24 504.3 315.226 501.122 313 498C308.507 491.698 303.961 485.44 299.667 479C286.335 459.011 273.353 437.859 263.309 416C253.47 394.587 244.046 373.145 235.947 351C232.753 342.269 227.831 332.393 226.51 323.17C225.68 317.378 231.346 311.47 230.812 305C230.495 301.169 229.254 297.218 227.147 294.001C225.384 291.308 222.488 289.059 222.036 285.715C221.21 279.6 223.236 272.138 223.83 266C224.984 254.078 226.487 241.96 227 230L203 230C202.398 225.345 202.233 220.909 197 220C200.894 218.755 204.803 218.27 207.566 214.891C213.274 207.912 209.49 196.577 202 193C204.592 189.299 203.848 185.364 204.039 181C204.318 174.629 205 168.412 205 162C201.676 162 196.189 162.981 193.603 160.397C191.584 158.378 191.925 154.622 191.576 152C190.601 144.693 190.383 137.302 189.424 130C186.269 105.971 186 81.2219 186 57C186 48.4659 188.915 33.1945 184 26z"/>
<path style="fill:#fff; stroke:none;" d="M168 164L168 191L175 191L175 164L168 164M177 164L177 191L192 191C193.644 182.145 193 172.978 193 164L177 164M195 164C195 173.138 196.125 183.074 194 192C196.212 191.974 199.415 192.373 200.972 190.397C202.465 188.502 201.995 185.241 202 183L202 164L195 164M192 192L193 193L192 192M190 193L189 195C190.263 194.029 190.392 194.306 190 193M188 196C183.215 204.967 186 219.956 186 230L191 230L189 215C190.186 216.186 190.584 216.528 192 217C190.084 213.814 187.787 210.765 187.215 207C186.636 203.198 188.162 199.683 188 196M182 202C181.883 204.73 181.501 207.314 181 210C178.294 209.009 175.868 208.287 173 208L183 213C183 209.3 183.44 205.432 182 202M193 217C194.223 218.195 194.42 218.316 196 219C194.861 217.985 194.388 217.691 193 217M145 234C145.996 246.619 147.992 259.327 148 272L168 272C167.992 259.327 165.996 246.619 165 234L145 234M168 234C168.998 246.647 170.999 259.294 171 272L198 272C198.008 259.327 200.004 246.619 201 234L168 234M204 234C203.004 246.619 201.008 259.327 201 272L221 272C221.008 259.327 223.004 246.619 224 234L204 234M209 284C211.052 284.874 212.747 284.953 215 285C212.948 284.126 211.253 284.047 209 284M206.667 285.333C206.222 285.778 207.278 285.722 207.333 285.667C207.778 285.222 206.722 285.278 206.667 285.333M216.667 285.333C216.222 285.778 217.278 285.722 217.333 285.667C217.778 285.222 216.722 285.278 216.667 285.333M204 286L205 287L204 286M219 286L220 287L219 286M202 287C196.927 291.29 192.367 291 186 291L186 320C189.813 314.258 192.19 306.631 194 300C194.722 302.418 194.948 304.472 195 307C196.471 303.528 196.2 299.589 197.563 296C198.775 292.81 201.314 290.281 202 287M170 291C174.065 301.48 179.405 312.05 182 323C183.552 319.301 183 314.983 183 311L183 291L170 291M166 293C162.528 305.693 154.154 317.779 153 331L171 331C173.191 330.995 176.553 331.491 178.381 329.972C181.176 327.651 178.199 322.547 177.203 320C173.861 311.458 171.493 300.341 166 293M195 308C193.694 312.784 191.778 317.371 190.004 322C189.256 323.95 187.928 326.551 188.708 328.682C189.715 331.437 193.686 330.983 196 330.999C202.666 331.045 209.334 331 216 331C215.879 328.339 215.851 327.529 218 326C215.122 324.758 211.919 324.735 209 323.467C202.539 320.659 198.231 314.823 197 308L195 308M223 322L222 324C223.263 323.029 223.392 323.306 223 322M219.667 324.333C219.222 324.778 220.278 324.722 220.333 324.667C220.778 324.222 219.722 324.278 219.667 324.333M152 334C153.844 346.314 161.015 358.22 165 370L167 370C170.49 363.379 172.763 355.996 175.424 349C177.368 343.89 179.544 339.568 179 334L152 334M189 334C188.181 342.379 193.357 351.327 196.399 359C198.042 363.143 199.182 367.509 202 371C207.662 360.368 214.214 345.922 216 334L189 334M219 339C215.045 350.692 208.846 361.989 206 374C214.285 376.449 224.386 375 233 375C228.607 363.611 225.731 349.138 219 339M149 341C144.752 352.013 139.662 363.501 137 375L153.999 374.999C155.842 374.987 158.681 375.356 160.164 373.972C162.48 371.812 159.901 367.272 159 365C155.903 357.192 153.651 348.004 149 341M182 342C179.011 352.928 171.585 363.601 171 375L183 375L183 354C183 350.017 183.552 345.699 182 342M186 345L186 375C190.113 375 194.04 375.171 198 374C194.928 364.919 191.774 352.638 186 345M135 378C137.116 390.287 144.131 402.129 148 414L150 414C154.638 402.104 169.658 411.741 179 413C175.145 403.603 172.384 390.902 166 383C162.915 389.927 160.962 403.606 153 406C155.171 399.583 157.842 393.353 160.184 387C160.978 384.847 162.313 381.749 160.781 379.603C159.362 377.617 156.11 378.015 153.999 378.001C147.667 377.957 141.333 378 135 378M171 378C171.516 389.263 178.415 400.402 182 411C183.552 407.301 183 402.983 183 399L183 378L171 378M186 378L186 411C190.751 404.716 192.958 395.35 195.796 388C196.709 385.637 198.5 382.01 196.781 379.603C194.854 376.906 188.863 378 186 378M207 378C207.325 385.095 210.636 391.415 213.049 398C214.177 401.076 215.763 403.738 213 406C214.506 406.683 215.315 406.826 217 407C214.857 416.347 211.282 425.477 210 435C210.685 433.752 210.749 433.452 211 432C216.155 430.908 214.671 426.186 214.954 422C215.225 418.002 216.493 413.992 217 410L219 414L221 414C224.869 402.129 231.884 390.287 234 378L207 378M202 384C197.446 392.551 192.646 403.442 191 413C198.125 412.04 204.957 409.454 212 408C210.743 399.607 205.951 392.231 204 384L202 384M236 384C234.134 391.874 230.451 399.441 227.576 407C226.371 410.168 223.795 414.344 224.538 417.852C225.686 423.27 239.846 421.074 243.996 420.995C245.919 420.959 248.506 421.141 249.806 419.397C251.873 416.621 249.489 412.58 248.244 410C244.238 401.698 241.547 391.33 236 384M132 385C129.22 393.167 125.497 401.236 121.742 409C120.48 411.608 117.456 415.622 118.133 418.682C118.691 421.204 122.042 420.958 124.004 420.995C128.657 421.084 133.343 421.084 137.996 420.995C139.92 420.959 142.505 421.141 143.806 419.397C145.804 416.715 143.628 412.628 142.6 410C139.459 401.969 137.218 391.902 132 385M153 410L153 413C153.696 411.446 153.696 411.554 153 410M180 413C181.248 413.685 181.549 413.749 183 414C181.944 415.71 180.095 417.861 180.188 420.005C180.312 422.854 183.173 425.129 185.005 427C189.95 432.051 195.004 436.999 200 442C201.766 443.768 208.144 448.48 206.793 451.534C205.289 454.935 197.525 447.073 196 446C198.541 449.605 201.395 452.459 205 455L202 459C198.794 455.796 195.707 452.611 192 450C194.541 453.605 197.395 456.459 201 459C195.696 462.667 193.038 459.022 189 455C183.657 449.679 178.388 444.28 173 439.005C171.165 437.208 168.839 434.269 166.025 434.182C163.925 434.117 162.468 435.806 161 437L160 433C159.378 434.943 159.564 435.949 160 438C148.795 442.69 138.001 451.061 131 461C134.939 458.226 137.945 454.163 142 451.603C155.084 443.344 163.966 457.636 173 464C171.67 462.248 170.752 461.33 169 460C172.204 456.794 175.389 453.707 178 450C174.395 452.541 171.541 455.395 169 459C167.193 457.119 163.688 454.518 163.117 451.83C162.314 448.049 169.23 441.217 173 442.207C178.971 443.775 185.603 453.758 190.004 458.01C191.831 459.776 194.188 462.793 197 462.793C202.773 462.793 206.68 453.639 211.285 451.028C221.511 445.231 229.711 454.866 237 460C232.736 453.947 227.053 448.959 221 444.721C217.116 442.002 212.377 440.191 210 436C208.075 435.545 205.952 434.099 203.959 434.164C201.828 434.233 200.142 436.072 198 435.965C194.454 435.787 188.213 429.546 188.035 426C187.928 423.856 189.74 422.14 189.841 420.005C189.971 417.253 187.974 416.094 190 414C186.901 413.01 183.295 413.349 180 413M154 414C153.185 417.343 154.417 418.905 154.71 422.116C155.143 426.876 152.39 430.856 159 432C158.202 426.071 156.866 419.274 154 414M118 424C118.819 433.316 124.117 442.156 127 451C136.213 448.118 138.675 442.409 142 434C142.899 431.727 145.481 427.189 143.164 425.028C141.498 423.473 138.065 424.004 136 424L118 424M241 454C240.098 452.077 239.924 452.001 238 451C239.684 450.776 240.314 450.782 242 451C243.881 445.23 246.178 439.644 248.399 434C249.269 431.79 250.911 428.757 250.073 426.318C249.333 424.165 246.889 424.104 244.985 424.019C240.355 423.812 235.637 423.916 231.004 424.005C229.397 424.035 227.121 423.829 225.836 425.028C223.519 427.189 226.101 431.727 227 434C230.314 442.381 233.393 448.641 241 454M112 429C109.98 437.523 105.988 445.844 102.797 454C101.833 456.465 99.2568 460.816 101.071 463.397C102.75 465.785 107.501 464.998 110 465L110 468L101 468C100.295 475.212 104.11 482.511 107 489C110.647 483.578 113.487 477.036 116 471C114.344 472.686 113.749 473.746 113 476C110.002 472.611 111.827 470.174 111.981 465.985C112.195 460.193 111.234 455.537 110 450L122 450C120.045 442.839 117.144 435.721 114 429L112 429M148 429C146.872 432.339 145.599 435.522 145 439L152 435L150 429L148 429M219 429L217 435L225 440L221 429L219 429M255 429C251.856 435.721 248.955 442.839 247 450L257 450C254.961 459.146 254.961 465.854 257 475L254 472C254.173 477.844 259.339 484.191 261 490C265.144 484.461 268.676 474.917 268 468L257 468L257 465C259.853 465 266.024 466.105 267.929 463.397C269.743 460.816 267.167 456.465 266.203 454C263.012 445.844 259.02 437.523 257 429L255 429M122 451L123 455C123.393 453.076 123.146 452.64 122 451M246 451L245 455C246.146 453.36 246.393 452.924 246 451M128 452L128 454C129.635 453.455 129.455 453.635 130 452L128 452M271 455L272 459C272.393 457.076 272.146 456.64 271 455M97 456L98 457L97 456M124 456L122 461C123.848 459.22 124.566 458.509 124 456M244 456L244 459C244.696 457.446 244.696 457.554 244 456M96 458L97 459L96 458M237 461C238.33 462.753 239.247 463.67 241 465C239.67 463.247 238.753 462.33 237 461M246 461C246.545 462.635 246.365 462.455 248 463C247.455 461.365 247.635 461.545 246 461M121 462C119.032 464.578 117.388 467.07 116 470C118.466 467.738 120.6 465.374 121 462M130 462C128.814 463.186 128.472 463.584 128 465C129.548 463.738 129.808 463.806 130 462M248 464C248.545 465.635 248.365 465.455 250 466C249.455 464.365 249.635 464.545 248 464M127 466C125.032 468.578 123.388 471.07 122 474C124.466 471.738 126.6 469.374 127 466M241 466C241.545 467.635 241.365 467.455 243 468C242.455 466.365 242.635 466.545 241 466M250 467C250.545 468.635 250.365 468.455 252 469C251.455 467.365 251.635 467.545 250 467M90 468C86.4963 473.295 83.1887 478.713 79.6667 484C77.6789 486.984 74.7787 490.305 74.3819 494C73.9502 498.021 76.5875 502.358 78 506C83.0018 498.466 85.2733 488.403 88.6011 480C90.2255 475.898 92.2153 472.148 90 468M278 468C276.786 480.417 286.758 494.124 290 506C292.389 503.043 295.282 497.971 294.908 494C294.627 491.01 292.264 488.421 290.695 486C286.799 479.986 283.489 472.67 278 468M243 469C243.545 470.635 243.365 470.455 245 471C244.455 469.365 244.635 469.545 243 469M252 470L253 471L252 470M245 472L247 476C246.961 473.962 246.466 473.495 245 472M95 474C90.7748 486.49 85.0872 498.46 81 511L101 511C102.031 506.005 104.838 500.098 104.437 495C103.883 487.967 99.2477 480.644 97 474L95 474M272 474C268.869 483.254 262.883 492.096 265.576 502C266.303 504.67 266.642 509.005 269.43 510.397C274.07 512.714 282.869 511 288 511C283.913 498.46 278.225 486.49 274 474L272 474M121 475L122 476L121 475M120 477C118.296 479.932 116.939 482.74 116 486C118.166 483.385 120.037 480.443 120 477z"/>
<path style="fill:#666666; stroke:none;" d="M146 477L146 525L183 525L183 514C184.081 517.657 184 521.199 184 525L221 525L221 477L184 477L184 496C182.222 489.986 183 483.243 183 477L146 477z"/>
<path style="fill:#fff; stroke:none;" d="M248 477L249 478L248 477M249 479L250 480L249 479M250 481L251 482L250 481M251 483L252 484L251 483M252 485L253 486L252 485M115 487L116 488L115 487M253 487L254 491C254.393 489.076 254.146 488.64 253 487M114 489L113 493C114.146 491.36 114.393 490.924 114 489M112.333 494.667C112.278 494.722 112.222 495.778 112.667 495.333C112.722 495.278 112.778 494.222 112.333 494.667M172 495C172.416 498.083 173.158 501.006 174 504C177.829 504.874 179.651 507.45 183 509.289C185.704 510.773 189.116 510.755 192 512C188.438 506.943 182.407 503.165 181 497L172 495M186 497C185.834 498.809 185.698 499.297 185 501L188 505C189.804 504.445 191.127 504.166 193 504C193.842 501.006 194.584 498.083 195 495L186 497M70 498L61 511L75 511C73.9515 506.47 72.583 501.891 70 498M298 498L294 511L308 511C305.138 506.362 302.086 501.63 298 498M183 499L184 500L183 499M177 509C175.814 510.186 175.472 510.584 175 512C176.548 510.738 176.808 510.806 177 509z"/>
</svg>
