<?xml version="1.0" encoding="utf-8"?>
<!-- Generator: Adobe Illustrator 22.1.0, SVG Export Plug-In . SVG Version: 6.00 Build 0)  -->
<svg version="1.1" id="レイヤー_1" xmlns="http://www.w3.org/2000/svg" xmlns:xlink="http://www.w3.org/1999/xlink" x="0px"
	 y="0px" viewBox="0 0 232 430.6" style="enable-background:new 0 0 232 430.6;" xml:space="preserve">
<g transform="translate(0.000000,507.000000) scale(0.100000,-0.100000)">
	<path d="M1146,5014.4c-3-36-7-216-10-400c-2-219-10-398-21-517l-18-183h-55h-54l7-117c12-199,10-188,38-186c23,1,24,0,16-35
		c-12-50-12-49,14-55c12-3,32-9,45-12c21-7,22-5,22,49c0,32,4,56,10,56c10,0,11-150,1-150c-3,0-13,8-23,17s-41,18-71,21
		c-51,4-54,3-85-32c-24-28-32-46-32-76c0-21,5-42,10-45c6-3,10-11,10-17s-28-9-77-7c-73,4-78,3-76-16c1-11,10-96,19-190
		c9-93,18-183,20-200c1-16,3-49,3-72c1-38,4-43,25-43h24l-24-82c-13-46-36-121-51-168c-15-46-28-90-29-98c-2-7-14-43-29-80
		s-29-76-31-87s-17-51-33-90c-16-38-39-95-51-125c-141-355-360-750-576-1041l-64-86v-92v-91h46h45l-2,65l-2,66l176,2l176,2l-4-25
		c-3-14-8-44-11-67c-5-40-3-43,19-43c21,0,24,6,35,73c19,115,22,128,44,197c40,124,120,266,201,356c45,50,184,154,206,154
		c20,0,12,42-8,47c-23,6-41,65-22,71c15,5,14,21-4,39c-9,9-13,23-10,34c4,10,3,29-1,42c-7,20-8,20-19-13c-11-30-14-32-20-15
		c-4,11-31,83-61,160s-54,143-54,148c0,4,52,7,115,7c91,0,117-3,121-14c3-8-10-54-30-103c-42-107-44-114-30-120c11-3,46,71,75,160
		c14,40,26,47,36,19c3-9,24-65,47-124c36-93,45-109,70-118c16-5,31-10,32-10c2,0,4,70,4,155v155h50c41,0,50-3,51-17
		c2-24,4-18-31-108c-39-100-60-168-55-173c11-11,28,19,70,129c26,66,51,119,57,117c10-4,31-51,63-141c9-26,23-47,31-47s14,3,14,7
		c0,9-34,99-62,164c-11,26-17,52-14,58c5,7,50,11,126,11h120l-12-27c-43-108-73-187-91-240c-22-63-37-81-37-43c0,11-4,20-10,20
		c-5,0-10-18-10-40s-4-40-10-40c-14,0-13-27,1-32c15-5-10-78-25-75c-6,1-12-7-13-18c-2-15,12-29,54-55c86-53,168-134,227-224
		c53-80,113-199,120-241c2-11,14-52,25-90c12-39,25-98,28-133c6-59,7-62,33-62c27,0,27,0,19,48c-5,26-11,56-13,67c-5,19,0,20,174,20
		h180v-67v-68h45h45v88v87l-57,75c-207,275-401,620-568,1010c-39,92-136,347-140,372c-2,9-14,45-26,77l-21,60l-29-14
		c-15-8-35-15-44-15c-18,0-19-12-3-28c9-9-16-12-114-12c-70,0-129,4-132,8c-3,5,10,51,29,102c34,91,49,180,23,135
		c-7-11-24-56-40-100l-27-80l-1,138v137h49c39,0,56,5,77,25c45,42,123,53,162,22c7-5,14-8,16-6s11,99,20,214c9,116,18,224,21,241
		l3,32l-102-5l-103-6l-7,47c-7,42-10,46-35,46c-16,0-41,10-56,22c-26,20-27,20-22,2c3-10,9-32,12-49c4-16,9-38,12-47
		c3-14-2-18-21-18h-26v144v145l36,29l35,29l6,112l6,111h29h30l-6-114c-4-65-2-117,3-120c11-7,17,46,20,167l2,89l-55-4l-54-3l-7,65
		c-10,95-13,125-20,225c-3,50-10,140-15,200c-6,61-10,229-11,375C1169,5039.4,1159,5144.4,1146,5014.4z M1165,4213.4
		c4-31,14-118,21-199c3-36,8-73,10-82c4-15-1-18-34-18h-39l3,43c10,125,27,287,31,284C1159,4238.4,1163,4226.4,1165,4213.4z
		 M1070,3825.4c0-37,3-89,6-115c7-46,7-46-23-46s-31,1-36,58c-3,31-6,83-7,115l-1,57h30h31V3825.4z M1230,3779.4v-115h-68h-68
		l-2,115l-3,115h70h71V3779.4z M1135,3635.4c27-2,28-3,9-11c-14-5-24-21-28-44c-5-27-12-36-27-36c-16,0-19,5-16,35c3,20,0,38-4,41
		c-17,10-9,21,14,19C1095,3638.4,1119,3636.4,1135,3635.4z M1112,3457.4c32-26,35-32,37-84l2-56l-94-2l-94-2l-2,55
		c-2,62,10,93,42,106C1043,3490.4,1076,3484.4,1112,3457.4z M1282,3348.4c4-30,1-34-19-34s-23,5-23,39s3,38,19,34
		C1272,3384.4,1279,3371.4,1282,3348.4z M1004,3187.4c4-60,9-133,12-163l5-55h-85c-47,0-86,0-86,0c-1,0-30,303-30,313
		c0,9,24,12,89,12h88L1004,3187.4z M1296,3242.4c-3-29-8-84-11-123c-3-38-8-88-11-110l-5-40h-114h-115l-1,40c0,22-2,48-4,57
		s-6,60-9,114c-4,54-9,101-12,106c-3,4,61,8,142,8h146L1296,3242.4z M1489,3222.4c-5-40-11-112-14-160l-7-87l-86-3c-48-2-88-3-88-3
		c-1,0,5,73,14,163l15,162h87h86L1489,3222.4z M1157,2943.4c54,0,105,1,113,2s52,1,98,1l82-2v-29c0-27-2-29-35-24
		c-44,6-95-11-131-43c-22-18-39-24-69-23c-22,0-44,0-50-1c-5-1-13-2-16-2c-21,3-108,2-128-1c-21-3-60-41-61-60c0-4-20-58-45-120
		c-24-62-49-136-55-165c-5-30-16-66-25-80c-15-28-69-172-105-282c-12-36-36-94-54-130s-39-81-46-100s-20-43-29-54c-9-10-15-20-13-22
		c1-2-5-21-14-42c-8-20-13-49-10-65c4-21-1-33-24-54c-16-14-35-41-42-60c-7-18-16-33-20-33s-7-3-6-7c6-24-17-73-43-92
		c-16-12-37-38-46-57c-17-34-17-35,10-60c15-14,27-31,27-39c0-24-18-27-40-5c-11,11-25,20-30,20c-13,0-45-37-68-77
		c-35-62-98-156-135-201c-53-66-81-128-87-192c-4-40-9-55-20-55c-12,0-15,15-16,70c-1,67,8,96,40,131c21,22,46,54,46,58
		c0,3,37,60,83,128c195,289,376,640,507,978c50,130,159,454,186,554c23,89,22,103-8,126c-4,3-10,28-13,56l-7,51l78,2c43,1,81,4,83,7
		c3,2,13,2,22-1C1051,2945.4,1103,2943.4,1157,2943.4z M1015,2773.4c3-13,29-83,58-155s51-136,49-142c-2-8-41-12-123-12
		c-65,0-119,2-119,3c0,8,42,126,64,182c14,33,32,81,42,108C1004,2808.4,1008,2810.4,1015,2773.4z M1140,2684.4c0-72,6-141,15-175
		c8-31,11-70,8-87l-6-31l-14,28c-12,22-12,32-2,57c7,18,8,32,3,36s-15,25-21,47c-13,44-52,149-77,208l-16,37h55h55V2684.4z
		 M1614,2159.4c72-183,147-350,219-490c116-224,153-289,274-470c117-176,121-182,155-226c25-32,28-46,28-107c0-52-4-71-15-75
		c-20-8-25,4-24,56c1,24-2,50-7,58c-4,8-9,20-10,27c-3,19-76,122-86,122c-5,0-12,10-17,22c-14,36-114,191-151,234
		c-18,22-29,33-26,27c4-7,2-18-4-25s-17-22-24-32c-13-19-14-19-25,3c-11,19-9,25,13,46c32,30,33,47,1,102c-35,58-52,55-20-4
		c27-51,31-73,15-73c-5,0-10,7-10,15c0,9-7,29-15,45s-17,37-18,47c-11,54-79,189-95,186c-19-4-33,33-23,59c9,24-32,127-124,313
		c-19,39-35,76-35,82c0,23-101,289-120,315c-25,34-25,43,1,67l22,20l47-137C1566,2291.4,1599,2198.4,1614,2159.4z M1116,2419.4
		c3-7-4-35-14-62c-11-26-35-87-54-135c-21-56-38-88-48-88s-25,26-42,73c-27,73-71,190-82,217c-5,13,10,15,114,12
		C1080,2434.4,1112,2429.4,1116,2419.4z M1440,2441.4c0-2-15-39-34-83c-18-43-46-114-62-156c-16-43-34-78-40-78s-19,21-29,48
		c-9,26-32,86-51,133c-52,133-56,128,84,132c64,1,120,4,125,5C1437,2443.4,1440,2443.4,1440,2441.4z M1484,2333.4
		c13-41,36-105,51-144c15-38,29-77,31-85c4-13-12-15-111-15c-135,0-127-13-75,125c18,47,42,111,53,142c11,32,22,56,24,54
		S1471,2373.4,1484,2333.4z M889,2308.4c1-12,53-140,73-181c6-13,9-26,5-29c-5-6-227-12-227-6c0,1,8,19,19,40c10,20,36,88,57,151
		l38,113l17-38C881,2336.4,889,2314.4,889,2308.4z M1146,2362.4c-3-13-6-79-6-148v-125l-55-1c-30,0-55,3-55,7s11,34,24,66
		c46,110,76,193,76,208c0,8,5,15,11,15C1148,2384.4,1150,2375.4,1146,2362.4z M1234,2202.4c20-53,36-101,36-105s-22-8-50-8h-50
		l1,140C1171,2387.4,1166,2389.4,1234,2202.4z M1014,2089.4c6-17-2-45-14-45c-5,0-11,9-15,20C974,2097.4,1001,2121.4,1014,2089.4z
		 M1325,2084.4c3-5,1-19-5-31c-11-20-12-20-25-3c-7,10-11,24-8,31C1293,2096.4,1316,2098.4,1325,2084.4z M1142,1919.4
		c2-80,1-145-2-145s-15,28-28,63c-13,34-36,95-53,134c-16,40-29,77-29,83c0,5,24,10,54,10h55L1142,1919.4z M1658,1889.4
		c17-38,40-88,51-110c12-21,21-50,21-62c0-23-2-23-120-23c-143,0-139-7-84,133c20,50,46,116,57,144l21,53l12-33
		C1623,1974.4,1642,1928.4,1658,1889.4z M778,1850.4c28-71,48-135,45-143c-4-10-34-13-124-13c-108,0-119,2-119,18c0,10,4,22,9,27
		c7,9,56,116,107,234c15,35,19,40,25,25C725,1987.4,751,1921.4,778,1850.4z M868,1678.4c-4-24-24-29-32-8c-8,20,13,49,27,35
		C868,1700.4,870,1688.4,868,1678.4z M1475,1694.4c11-33-16-57-29-25c-6,17,2,45,14,45C1465,1714.4,1471,1705.4,1475,1694.4z
		 M820,1656.4c0-4-12-41-27-82c-19-55-38-88-72-122l-45-48l-23,63c-13,34-33,87-44,117s-23,62-25,70c-4,13,12,15,115,12
		C766,1664.4,820,1660.4,820,1656.4z M1730,1646.4c0-10-4-22-8-27c-8-10-30-66-67-169l-17-48l-40,39c-26,26-51,68-74,123
		c-19,46-34,88-34,92s54,8,120,8C1719,1664.4,1730,1662.4,1730,1646.4z M585,1557.4c15-38,38-92,51-122c25-53,25-54,6-75
		c-27-30-93-142-122-204l-24-52l-33,80c-18,43-30,86-27,95c4,10,19,15,45,15c29,0,39,4,39,16c0,14-8,16-45,12c-56-7-57-2-10,112
		c19,47,35,88,35,92c0,17,40,98,49,98C554,1624.4,570,1594.4,585,1557.4z M877,1599.4c10-23,9-26-23-41c-19-9-34-20-34-25s-4-9-9-9
		s0,23,12,50C846,1630.4,859,1636.4,877,1599.4z M1486,1589.4c3-19,10-38,15-41s9-10,9-15c0-8-43,12-78,37c-2,1,0,13,4,28
		C1446,1638.4,1478,1632.4,1486,1589.4z M1801,1556.4c15-37,40-101,57-143c16-42,27-81,23-85c-3-5-28-9-55-9c-70,0-73-23-4-27
		c50-3,53-5,51-28c-1-26-34-127-51-156c-8-14-13-7-26,33c-9,27-45,92-79,145l-63,94l37,90c21,49,43,104,49,122c7,17,18,32,24,32
		S1787,1593.4,1801,1556.4z M428,1407.4c-23-54-26-58-33-51s34,98,45,98C445,1454.4,440,1433.4,428,1407.4z M367,1279.4
		c3-9-8-48-25-88c-64-154-82-203-82-219c0-10-4-18-10-18c-5,0-10,6-10,14c0,7-9,34-20,59l-20,46l61,87c34,49,66,98,72,111
		C345,1298.4,358,1301.4,367,1279.4z M2045,1175.4l67-103l-15-37c-8-20-19-47-24-60c-8-21-17-3-67,132c-35,93-56,163-52,173
		C1962,1302.4,1963,1301.4,2045,1175.4z M428,1198.4c6-21,22-60,34-87c21-46,21-49,5-101c-9-29-17-60-17-69c0-15-13-17-94-17h-94
		l24,50c13,27,24,52,24,55s15,45,34,93c18,48,36,95,40,105C393,1255.4,414,1242.4,428,1198.4z M1944,1192.4c17-51,62-167,92-235
		l14-33h-93h-93l-16,68l-16,67l36,93c20,50,41,92,47,92S1934,1220.4,1944,1192.4z M210,972.4l18-48h-69H90l47,61c28,35,49,55,52,47
		C191,1025.4,201,998.4,210,972.4z M2183,926.4c-18-2-48-2-67,0l-33,3l24,57l25,57l42-57l42-57L2183,926.4z"/>
	<path d="M1620,1444.4c0-5,5-10,11-10c5,0,7,5,4,10c-3,6-8,10-11,10C1622,1454.4,1620,1450.4,1620,1444.4z"/>
	<path d="M520,1432.4c0-10,5-18,10-18c6,0,10-32,10-76c0-47-4-73-10-69c-5,3-10-3-10-14c0-12,7-21,15-21s15,6,15,13s20,42,44,77
		c42,60,44,65,31,91c-12,22-22,28-60,31S520,1446.4,520,1432.4z M604,1408.4c7-17-5-44-28-64c-14-11-16-8-16,27c0,22,3,43,7,46
		C578,1429.4,598,1424.4,604,1408.4z"/>
	<path d="M1687,1412.4c-13-31-12-35,14-68c15-20,35-52,45-73c18-38,34-48,34-22c0,8-4,15-10,15s-10,32-10,75s4,75,10,75s10,7,10,15
		c0,11-11,15-40,15C1704,1444.4,1699,1440.4,1687,1412.4z M1738,1379.4c-1-28-4-33-15-24c-13,12-18,51-7,62
		C1729,1430.4,1739,1412.4,1738,1379.4z"/>
	<path d="M1231,3640.4c-104-57-30-244,82-207c81,27,85,152,5,201C1280,3657.4,1264,3658.4,1231,3640.4z M1310,3611.4
		c76-63,29-187-56-148c-30,13-58,74-48,104C1221,3619.4,1274,3641.4,1310,3611.4z"/>
	<path d="M1340,2837.4c-53-28-81-76-79-139c5-133,125-215,224-154c66,41,83,130,40,216C1486,2838.4,1407,2871.4,1340,2837.4z
		 M1453,2805.4c45-29,67-74,67-136c0-47-4-58-34-89c-38-41-79-47-124-19c-54,35-79,88-74,158C1296,2809.4,1380,2853.4,1453,2805.4z"
		/>
	<path d="M894,1797.4c14-43,47-171,53-200c7-39,9-40,33-10l19,22l135-135c99-98,139-131,147-123s-1,22-33,51c-23,22-39,44-35,48
		s27-11,51-35c36-36,44-40,50-26c4,12-6,31-32,59l-39,42l-26-20l-27-20l-89,88c-67,65-96,87-112,84c-20-3-24,5-42,70
		c-11,40-17,75-14,78c2,3,37-3,77-13c67-17,73-21,74-45c2-28,10-38,109-138c31-32,57-62,57-67s20-29,45-53c35-35,48-41,57-32
		c10,10-16,41-122,148l-135,135l24,20c13,11,22,21,20,23c-6,5-131,38-163,43c-16,3-40,9-53,14C890,1817.4,888,1817.4,894,1797.4z"/>
	<path d="M1385,1804.4c-16-5-59-16-95-26c-36-9-76-21-90-26l-25-9l25-20l25-19l-29-26l-29-26l52-51l52-52l26,30l26,29l19-23
		c10-13,20-22,22-20c1,2,13,45,26,94c12,50,28,105,36,123C1440,1817.4,1438,1818.4,1385,1804.4z M1390,1755.4c0-9-9-43-19-76
		c-14-44-23-59-35-57c-9,2-29-5-45-14c-27-16-28-16-54,10c-31,31-33,39-11,57c9,7,14,22,11,36c-4,20,2,24,52,38c31,9,61,17,66,19
		C1378,1774.4,1390,1770.4,1390,1755.4z"/>
	<path d="M1003,1482.4c-37-37-44-51-35-60s22-2,57,32c53,52,61,42,9-11c-26-26-35-43-30-55c6-15,13-11,51,26c25,24,48,40,52,36
		s-11-25-35-47c-39-37-47-60-19-58c7,1,30,22,52,48l40,46l-47,46l-47,46L1003,1482.4z"/>
	<path d="M748,1387.4c-65-69-104-125-148-213c-49-97-53-114-59-248l-6-122h98h97v215v215h420h420v-215v-215h95h95v134
		c0,127-1,136-31,201c-40,89-106,187-168,253c-50,51-51,52-110,52h-59l-63-66l-64-65l-52,54l-52,54l-53-54l-54-54l-63,66l-63,65h-62
		h-63L748,1387.4z M960,1378.4c25-26,58-55,75-65l30-19l47,47l47,46l50-46c28-26,53-47,56-47s37,29,75,65c65,61,72,65,116,65
		c43,0,50-4,90-47c61-66,128-169,163-247c28-60,30-74,30-178c-1-62-5-115-9-118s-37-4-71-2l-64,4v191c0,155-3,194-15,209
		c-14,18-38,19-433,19c-310,0-422-3-433-12s-14-49-14-209v-198l-54-4c-88-5-84-11-82,110c2,102,4,111,42,192c39,83,95,173,128,205
		c9,9,19,22,23,28c21,34,67,57,112,57C912,1424.4,920,1420.4,960,1378.4z"/>
	<path d="M830,1009.4v-205h155h155v51c0,43-2,49-14,40c-31-26-67,16-36,44c17,15,19,14,39-11c15-19,21-41,21-75v-49h160h160v205v205
		h-158h-159l5-80c3-55,1-80-7-80c-7,0-11,27-11,80v80H985H830V1009.4z M1118,1132.4l3-56l-36,8c-45,10-68-9-59-48c11-44,22-70,34-77
		c8-5,8-11-1-21c-14-17,13-64,42-71c10-3,19-12,19-19c0-11-27-14-134-14H851l1,160c0,88,2,168,5,178c4,18,15,19,131,18l127-1
		L1118,1132.4z M1422,1188.4l27-5l-3-171c-3-93-6-171-8-173s-62-5-133-6c-87-1-130,2-133,10c-2,6,3,11,10,11c26,0,61,47,56,74
		c-3,15,1,31,8,37s16,31,20,56c8,57-9,79-50,63c-15-5-32-8-37-4c-10,6-13,97-3,107C1183,1194.4,1386,1195.4,1422,1188.4z
		 M1148,1023.4c3-12,2-12-6,0c-6,8-12,9-16,3c-3-6,19-32,49-58c55-48,55-48,36-68c-20-19-20-19-71,32c-28,29-56,49-64,46
		c-9-3-15,6-19,28c-3,18-8,41-12,50c-6,16-4,16,46-1C1120,1046.4,1146,1031.4,1148,1023.4z M1260,1072.4c0-2-6-23-13-47
		c-11-36-18-44-40-47c-29-3-42,10-42,43c-1,17,8,26,40,36C1247,1072.4,1260,1076.4,1260,1072.4z"/>
	<path d="M1180,940.4c0-2,8-10,18-17c15-13,16-12,3,4S1180,948.4,1180,940.4z"/>
	<path d="M1170,920.4c0-2,8-10,18-17c15-13,16-12,3,4S1170,928.4,1170,920.4z"/>
	<path d="M1096,926.4c-3-5-1-14,3-20c6-10,10-10,20,1c9,12,8,16-3,20C1107,931.4,1099,930.4,1096,926.4z"/>
</g>
</svg>
